<svg xmlns="http://www.w3.org/2000/svg" viewBox="0 0 32 32" width="32" height="32">
	<style>
		tspan { white-space:pre }
		.shp0 { fill: #71899b } 
	</style>
	<g id="MAIN">
		<g id="Block">
			<g id="03">
				<path id="Forma 1" class="shp0" d="M32 5.44L25.27 5.44C25.69 4.88 25.94 4.18 25.94 3.4C25.94 1.29 24.17 0 22.54 0C21.65 0 20.77 0.4 20.16 1.02L16 5.18L11.84 1.02C11.23 0.34 10.35 0 9.46 0C7.83 0 6.06 1.3 6.06 3.4C6.06 4.18 6.31 4.88 6.73 5.44L0 5.44L0 13.55L2.72 13.55L2.72 32L29.27 32L29.27 13.55L31.99 13.55L31.99 5.44L32 5.44ZM21.1 1.98C21.58 1.5 22.19 1.36 22.53 1.36C23.55 1.36 24.57 2.11 24.57 3.4C24.57 4.56 23.69 5.44 22.53 5.44L17.64 5.44L21.1 1.98ZM7.42 3.4C7.42 2.11 8.44 1.36 9.46 1.36C9.8 1.36 10.35 1.5 10.89 1.98L14.36 5.44L9.46 5.44C8.3 5.44 7.42 4.56 7.42 3.4ZM1.36 12.19L1.36 6.81L15.32 6.81L15.32 12.19L1.36 12.19ZM4.08 13.55L15.32 13.55L15.32 30.64L4.08 30.64L4.08 13.55ZM27.92 30.64L16.68 30.64L16.68 13.55L27.92 13.55L27.92 30.64L27.92 30.64ZM30.64 12.19L16.68 12.19L16.68 6.81L30.64 6.81L30.64 12.19Z" />
			</g>
		</g>
	</g>
</svg>