<svg xmlns="http://www.w3.org/2000/svg" viewBox="0 0 46 32" width="46" height="32">
	<style>
		tspan { white-space:pre }
		.shp0 { fill: #71899b } 
	</style>
	<g id="MAIN">
		<g id="Block">
			<g id="02">
				<path id="Forma 1" class="shp0" d="M37.66 0L8.33 0L0 10.97L23 31.99L46 10.97L37.66 0ZM31.76 11.76L23 28.76L14.32 11.76L31.76 11.76ZM15.13 9.95L23 2.19L30.87 9.95L15.13 9.95ZM25.21 1.81L35.86 1.81L32.86 9.36L25.21 1.81ZM13.26 9.24L10.75 1.81L20.79 1.81L13.26 9.24ZM12.27 11.76L19.89 26.69L3.57 11.76L12.27 11.76ZM33.82 11.76L42.43 11.76L26.15 26.65L33.82 11.76ZM34.59 9.95L37.46 2.75L42.94 9.95L34.59 9.95ZM8.95 2.21L11.57 9.96L3.06 9.96L8.95 2.21Z" />
			</g>
		</g>
	</g>
</svg>