<svg xmlns="http://www.w3.org/2000/svg" viewBox="0 0 50 32" width="50" height="32">
	<style>
		tspan { white-space:pre }
		.shp0 { fill: #71899b } 
	</style>
	<g id="MAIN">
		<g id="Block">
			<g id="01">
				<path id="Shape 1" class="shp0" d="M46.5 13.57L45.2 8.33C45.56 8.25 45.82 7.93 45.82 7.55L45.82 6.71C45.82 4.87 44.35 3.38 42.54 3.38L36.64 3.38L36.64 1.64C36.64 0.73 35.91 0 35.02 0L4.96 0C4.07 0 3.34 0.73 3.34 1.64L3.34 16C3.34 16.44 3.69 16.79 4.12 16.79C4.56 16.79 4.91 16.44 4.91 16L4.91 1.64C4.91 1.61 4.93 1.58 4.96 1.58L35.02 1.58C35.05 1.58 35.07 1.61 35.07 1.64L35.07 16C35.07 16.44 35.42 16.79 35.86 16.79C36.29 16.79 36.64 16.44 36.64 16L36.64 15.1L45.87 15.1C45.87 15.1 45.88 15.1 45.88 15.1C45.88 15.1 45.88 15.1 45.88 15.1C47.01 15.1 47.98 15.86 48.31 16.9L45.88 16.9C45.44 16.9 45.09 17.25 45.09 17.69L45.09 19.38C45.09 20.75 46.19 21.86 47.55 21.86L48.43 21.86L48.43 25.35L46.39 25.35C45.71 23.38 43.87 21.97 41.7 21.97C39.53 21.97 37.69 23.38 37.02 25.35L36.64 25.35L36.64 19.38C36.64 18.94 36.29 18.59 35.86 18.59C35.42 18.59 35.07 18.94 35.07 19.38L35.07 25.35L18.83 25.35C18.16 23.38 16.31 21.97 14.14 21.97C11.98 21.97 10.13 23.38 9.46 25.35L4.96 25.35C4.93 25.35 4.91 25.32 4.91 25.29L4.91 23.55L8.3 23.55C8.73 23.55 9.08 23.2 9.08 22.76C9.08 22.32 8.73 21.97 8.3 21.97L0.78 21.97C0.35 21.97 0 22.32 0 22.76C0 23.2 0.35 23.55 0.78 23.55L3.34 23.55L3.34 25.29C3.34 26.2 4.07 26.93 4.96 26.93L9.19 26.93C9.19 26.95 9.19 26.97 9.19 26.98C9.19 29.75 11.41 32 14.14 32C16.88 32 19.1 29.75 19.1 26.98C19.1 26.96 19.1 26.95 19.1 26.93L36.74 26.93C36.74 26.95 36.74 26.97 36.74 26.98C36.74 29.75 38.97 32 41.7 32C44.44 32 46.66 29.75 46.66 26.98C46.66 26.96 46.66 26.95 46.66 26.93L49.22 26.93C49.65 26.93 50 26.58 50 26.14L50 17.69C50 15.6 48.48 13.87 46.5 13.57ZM36.64 4.96L42.54 4.96C43.49 4.96 44.26 5.75 44.26 6.71L44.26 6.76L36.64 6.76L36.64 4.96ZM36.64 13.52L36.64 8.34L43.6 8.34L44.87 13.52L36.64 13.52L36.64 13.52ZM14.14 30.42C12.27 30.42 10.75 28.88 10.75 26.98C10.75 25.09 12.27 23.55 14.14 23.55C16.01 23.55 17.54 25.09 17.54 26.98C17.54 28.88 16.01 30.42 14.14 30.42ZM41.7 30.42C39.83 30.42 38.31 28.88 38.31 26.98C38.31 25.09 39.83 23.55 41.7 23.55C43.57 23.55 45.09 25.09 45.09 26.98C45.09 28.88 43.57 30.42 41.7 30.42ZM48.43 20.28L47.55 20.28C47.06 20.28 46.66 19.87 46.66 19.38L46.66 18.48L48.43 18.48L48.43 20.28L48.43 20.28ZM14.14 25.35C13.25 25.35 12.53 26.08 12.53 26.98C12.53 27.89 13.25 28.62 14.14 28.62C15.04 28.62 15.76 27.89 15.76 26.98C15.76 26.08 15.04 25.35 14.14 25.35ZM41.7 25.35C40.81 25.35 40.08 26.08 40.08 26.98C40.08 27.89 40.81 28.62 41.7 28.62C42.59 28.62 43.32 27.89 43.32 26.98C43.32 26.08 42.59 25.35 41.7 25.35ZM32.52 21.97L20.82 21.97C20.39 21.97 20.04 22.32 20.04 22.76C20.04 23.2 20.39 23.55 20.82 23.55L32.52 23.55C32.95 23.55 33.3 23.2 33.3 22.76C33.3 22.32 32.95 21.97 32.52 21.97ZM12.47 18.59L2.45 18.59C2.02 18.59 1.67 18.94 1.67 19.38C1.67 19.82 2.02 20.17 2.45 20.17L12.47 20.17C12.91 20.17 13.26 19.82 13.26 19.38C13.26 18.94 12.91 18.59 12.47 18.59ZM27.22 7.84C26.92 7.53 26.42 7.53 26.12 7.84L19.15 14.88L15.53 11.21C15.23 10.91 14.73 10.91 14.43 11.21C14.12 11.52 14.12 12.03 14.43 12.33L18.6 16.56C18.75 16.71 18.95 16.79 19.15 16.79C19.35 16.79 19.56 16.71 19.71 16.56L27.22 8.96C27.53 8.65 27.53 8.14 27.22 7.84Z" />
			</g>
		</g>
	</g>
</svg>